<?xml version="1.0" encoding="UTF-8"?>
<svg id="Layer_1" xmlns="http://www.w3.org/2000/svg" xmlns:xlink="http://www.w3.org/1999/xlink" version="1.1" viewBox="0 0 109.49 60.55">
  <!-- Generator: Adobe Illustrator 29.0.0, SVG Export Plug-In . SVG Version: 2.1.0 Build 186)  -->
  <defs>
    <style>
      .st0 {
        fill: none;
      }

      .st1 {
        fill: #063469;
      }

      .st2 {
        fill: #fff216;
      }

      .st3 {
        fill: #0dd65f;
      }

      .st4 {
        fill: #fff;
      }

      .st5 {
        fill: #d410e3;
      }

      .st6 {
        fill: #67f9a2;
      }

      .st7 {
        fill: #ffd002;
      }

      .st8 {
        clip-path: url(#clippath);
      }
    </style>
    <clipPath id="clippath">
      <path class="st0" d="M38.99,17.39l-2.26,10.03-2.16,1.12,2.16-11.16-2.72.8-2.52,11.9,2.39,1.89,5.05-2.71,3.02-12.79-2.96.93ZM58.62,16.48l-1.94-2.1-4.14,1.61.17.21-3.25,12.74,2.86-.85,4.65-4.19,1.66-7.43ZM54.67,23.82l-1.33.82-.8,1.11,1.89-7.96,1.73-.52-1.49,6.56ZM30.22,19.51l-1.23,4.8-2.46.81,1.3-4.99-2.82.88-3.89,14.05,3.35-1.37,1.43-5.96,2.36-.91-1.43,6.22,3.22-1.36,2.99-13.09-2.82.92ZM33.48,16.71l3.85-2.97-29.59,5.65,4.92,3.62,6.21-1.96-6.51,19.24,5.55-3.05,6.18-17.62,9.4-2.91ZM54,13.46l-4.68,1.16.3.38-2.03,7.16-2.13-6.79-2.46.77-3.65,14.7,3.09-1.09,2.16-8.28,1.99,7.61,1.96-.73,3.49-12.91,1.96-1.99ZM87.12,11.11l.6.69-3.35,11.38,3.02-.79,3.32-12.41-3.59,1.13ZM89.84,9.02l1.96-3.28-10.4,2.56-1.13,3.17,3.35-.78-4.25,12.5,3.75-1.67,3.92-11.69,2.79-.8ZM101.76,7.32l-3.69.59-2.82,4.54-1.13-3.48-2.79.73,1.79,5.42-4.68,7.07,3.49-1.13,2.03-3.47,1.89,4.3,3.32-.59-3.02-6.16,5.61-7.82ZM66.96,19.87l1.26,3.8,2.39-.77-1.79-4.38,1.73-2.19-2.66.65.66-2.42,2.52-.78.8-2.62-6.84,2.09,1.13,1.23-3.06,10.84,2.66-.87,1.2-4.58ZM77.85,14.83l-3.79,1.01.86-3.37,2.36-.69-.76,2.58,2.29-.8,1.63-4.99-7.61,2.2-2.09,7.35,5.15-.79-2.16,5.7-9.67,7.11,12.85-5.92,2.66-7.59-1.73-1.8ZM60.35,21.2l2.96-.7.87-2.62-3.26.72.55-3.11,3.13-.65.3-.37-1.53-1.3,3.72-2.74-10.23,2.4,2.76,2.95-1.73,8.37-4.44,4.17,8.76-2.73.6-2.36-3.16.87.7-2.91Z"/>
    </clipPath>
  </defs>
  <polygon class="st4" points="45.78 9.4 .68 17.7 9.79 24.27 9.31 26.77 14.16 25.51 7.26 46.31 21.07 39.11 21.25 38.15 31.94 33.8 33.04 34.85 24.59 38.75 46.37 37.81 43.32 41.76 54.56 40.26 37.7 59.22 104.98 21.19 102.49 21.58 99.07 15.48 107.7 3.67 94.33 6.63 97.34 1.7 84.6 5.34 85.23 4.51 72.74 8.04 73.62 6.41 41.16 13.9 45.78 9.4"/>
  <polygon class="st1" points="42.02 11.17 3.85 18.41 11.34 23.86 10.99 24.99 16.2 23.55 9.47 43.82 19.93 38.31 20.08 36.99 31.45 32.8 31.68 32.35 33.73 33.82 37.87 31.84 37.38 32.98 43.54 30.82 44.57 27.69 45.44 30.78 48.1 30.16 48.22 30.49 29.55 37.58 48.33 36.52 45.14 40.66 57.26 38.81 41.37 56.26 100.76 22.72 72.97 27.88 93 22.11 93.84 20.72 94.98 23.12 101.33 22 97.87 15.29 104.94 5.31 96.77 7.06 95.66 9.19 95.02 7.47 92.2 8.06 94.98 3.5 82.4 7.04 83.35 6.15 69.81 10.11 70.99 8.02 47.57 13.46 47.57 15.03 47.34 15.98 46.39 13.65 38.82 15.98 38.94 15.3 37 15.51 42.02 11.17"/>
  <path class="st3" d="M38.99,17.39l-2.26,10.03-2.16,1.12,2.16-11.16-2.72.8-2.52,11.9,2.39,1.89,5.05-2.71,3.02-12.79-2.96.93ZM58.62,16.48l-1.94-2.1-4.14,1.61.17.21-3.25,12.74,2.86-.85,4.65-4.19,1.66-7.43ZM54.67,23.82l-1.33.82-.8,1.11,1.89-7.96,1.73-.52-1.49,6.56ZM30.22,19.51l-1.23,4.8-2.46.81,1.3-4.99-2.82.88-3.89,14.05,3.35-1.37,1.43-5.96,2.36-.91-1.43,6.22,3.22-1.36,2.99-13.09-2.82.92ZM33.48,16.71l3.85-2.97-29.59,5.65,4.92,3.62,6.21-1.96-6.51,19.24,5.55-3.05,6.18-17.62,9.4-2.91ZM54,13.46l-4.68,1.16.3.38-2.03,7.16-2.13-6.79-2.46.77-3.65,14.7,3.09-1.09,2.16-8.28,1.99,7.61,1.96-.73,3.49-12.91,1.96-1.99ZM87.12,11.11l.6.69-3.35,11.38,3.02-.79,3.32-12.41-3.59,1.13ZM89.84,9.02l1.96-3.28-10.4,2.56-1.13,3.17,3.35-.78-4.25,12.5,3.75-1.67,3.92-11.69,2.79-.8ZM101.76,7.32l-3.69.59-2.82,4.54-1.13-3.48-2.79.73,1.79,5.42-4.68,7.07,3.49-1.13,2.03-3.47,1.89,4.3,3.32-.59-3.02-6.16,5.61-7.82ZM66.96,19.87l1.26,3.8,2.39-.77-1.79-4.38,1.73-2.19-2.66.65.66-2.42,2.52-.78.8-2.62-6.84,2.09,1.13,1.23-3.06,10.84,2.66-.87,1.2-4.58ZM77.85,14.83l-3.79,1.01.86-3.37,2.36-.69-.76,2.58,2.29-.8,1.63-4.99-7.61,2.2-2.09,7.35,5.15-.79-2.16,5.7-9.67,7.11,12.85-5.92,2.66-7.59-1.73-1.8ZM60.35,21.2l2.96-.7.87-2.62-3.26.72.55-3.11,3.13-.65.3-.37-1.53-1.3,3.72-2.74-10.23,2.4,2.76,2.95-1.73,8.37-4.44,4.17,8.76-2.73.6-2.36-3.16.87.7-2.91Z"/>
  <g class="st8">
    <path class="st6" d="M122.55,25.97c1.24,11.96-27.24,28.04-63.6,35.92-36.36,7.88-66.84,4.57-68.08-7.39-1.24-11.96,27.24-28.04,63.6-35.92,36.36-7.88,66.84-4.57,68.08,7.39Z"/>
  </g>
  <polygon class="st5" points="73.17 23.42 36.71 36.04 52.1 34.41 48.63 38.64 62.39 36.13 45.64 52.94 95.24 24.47 60.72 32.22 73.17 23.42"/>
  <polygon class="st7" points="38.6 35.33 55.49 32.4 50.3 37.41 68.46 33.63 48.5 50.49 93.22 24.93 60.72 32.22 73.69 23.18 38.6 35.33"/>
  <polygon class="st1" points="59.85 32.42 61.59 32.02 73.72 23.04 71.28 23.6 59.85 32.42"/>
  <polygon class="st2" points="38.75 35.34 55.34 32.48 50.4 37.39 68.22 33.73 53.1 36.03 57.81 31.14 38.75 35.34"/>
  <polygon class="st2" points="48.55 50.34 93.22 24.93 90.1 25.63 48.55 50.34"/>
  <polygon class="st5" points="8.39 19.26 13.01 22.9 12.65 23.02 7.73 19.39 8.39 19.26"/>
  <polygon class="st5" points="18.86 21.05 19.12 20.97 12.71 40.09 12.36 40.28 18.86 21.05"/>
  <polygon class="st5" points="25 21.01 25.3 20.92 21.55 34.9 21.13 35.06 25 21.01"/>
  <polygon class="st5" points="30.22 19.51 30.55 19.41 29.3 24.2 28.99 24.31 30.22 19.51"/>
  <polygon class="st5" points="28.26 26.81 28.54 26.71 27.16 32.91 26.84 33.04 28.26 26.81"/>
  <polygon class="st5" points="33.99 18.16 31.47 30.1 33.9 31.99 34.29 31.77 31.79 29.97 34.27 18.08 33.99 18.16"/>
  <polygon class="st5" points="36.72 27.41 38.99 17.39 39.29 17.3 37 27.29 36.72 27.41"/>
  <polygon class="st5" points="43.01 16.12 39.36 30.83 39.65 30.74 43.33 16.03 43.01 16.12"/>
  <polygon class="st5" points="46.6 29.08 44.6 21.47 44.78 21.45 46.8 29.01 46.6 29.08"/>
  <polygon class="st5" points="49.33 14.61 49.6 15 47.59 22.14 47.81 22.11 49.84 14.97 49.57 14.55 49.33 14.61"/>
  <polygon class="st5" points="56.16 17.25 56.3 17.21 54.88 23.7 54.67 23.81 56.16 17.25"/>
  <polygon class="st5" points="49.76 28.85 49.45 28.94 52.71 16.2 52.54 15.99 52.88 15.86 52.97 16.09 49.76 28.85"/>
  <path class="st5" d="M63.09,25.31l3.06-10.85-1.13-1.22s.17-.06.21-.05,1.16,1.17,1.16,1.17l-3.11,10.9-.2.05Z"/>
  <polygon class="st5" points="66.94 19.87 68.22 23.67 68.42 23.61 67.13 19.83 66.94 19.87"/>
  <polygon class="st5" points="56.86 12.84 59.59 15.78 57.89 24.18 53.51 28.29 53.96 28.23 58.18 24.19 59.85 15.7 57.17 12.76 56.86 12.84"/>
  <polygon class="st5" points="72.82 10.75 70.72 18.12 71.09 18.05 73.14 10.66 72.82 10.75"/>
  <polygon class="st5" points="75.89 17.33 73.73 23.06 64.1 30.12 74.07 23.21 76.23 17.28 75.89 17.33"/>
  <polygon class="st5" points="77.28 11.78 76.52 14.36 76.78 14.27 77.5 11.72 77.28 11.78"/>
  <polygon class="st5" points="81.41 8.3 80.27 11.47 80.62 11.39 81.72 8.23 81.41 8.3"/>
  <polygon class="st5" points="83.63 10.69 79.38 23.18 79.77 23.01 83.98 10.61 83.63 10.69"/>
  <polygon class="st5" points="84.35 23.18 87.72 11.79 87.09 11.11 87.5 10.99 88.06 11.67 84.69 23.08 84.35 23.18"/>
  <polygon class="st5" points="91.32 9.71 93.13 15.12 88.45 22.18 88.91 22.03 93.5 15.14 91.67 9.62 91.32 9.71"/>
  <polygon class="st5" points="93.95 17.58 95.86 21.88 96.09 21.85 94.2 17.56 93.95 17.58"/>
  <polygon class="st5" points="98.08 7.91 95.25 12.44 95.55 12.4 98.37 7.87 98.08 7.91"/>
</svg>